<svg width="17" height="14" viewBox="0 0 17 14" fill="none" xmlns="http://www.w3.org/2000/svg">
<path d="M8.08861 10.3714L9.12432 9.33571L7.76718 7.97857L6.73146 9.01428V9.51428H7.58861V10.3714H8.08861ZM12.0082 4.2375C12.1094 4.13631 12.1124 4.03809 12.0172 3.94285C11.9219 3.84762 11.8237 3.85059 11.7225 3.95178L8.59753 7.07678C8.49634 7.17797 8.49337 7.27619 8.58861 7.37142C8.68384 7.46666 8.78206 7.46369 8.88325 7.3625L12.0082 4.2375ZM12.7315 9.24642V10.9429C12.7315 11.6512 12.48 12.2568 11.977 12.7598C11.474 13.2628 10.8684 13.5143 10.16 13.5143H2.73146C2.02313 13.5143 1.41747 13.2628 0.914499 12.7598C0.411522 12.2568 0.160034 11.6512 0.160034 10.9429V3.51428C0.160034 2.80595 0.411522 2.20029 0.914499 1.69732C1.41747 1.19434 2.02313 0.942853 2.73146 0.942853H10.16C10.535 0.942853 10.8832 1.01726 11.2047 1.16607C11.294 1.20773 11.3475 1.27619 11.3654 1.37142C11.3832 1.47262 11.3565 1.55892 11.285 1.63035L10.8475 2.06785C10.7642 2.15119 10.669 2.175 10.5618 2.13928C10.4249 2.10357 10.291 2.08571 10.16 2.08571H2.73146C2.33861 2.08571 2.0023 2.22559 1.72253 2.50535C1.44277 2.78512 1.30289 3.12142 1.30289 3.51428V10.9429C1.30289 11.3357 1.44277 11.672 1.72253 11.9518C2.0023 12.2315 2.33861 12.3714 2.73146 12.3714H10.16C10.5529 12.3714 10.8892 12.2315 11.169 11.9518C11.4487 11.672 11.5886 11.3357 11.5886 10.9429V9.81785C11.5886 9.74047 11.6154 9.675 11.669 9.62142L12.2404 9.05C12.3297 8.96071 12.4338 8.93988 12.5529 8.9875C12.6719 9.03512 12.7315 9.12142 12.7315 9.24642ZM11.8743 2.65714L14.4457 5.22857L8.44575 11.2286H5.87432V8.65714L11.8743 2.65714ZM15.8386 3.83571L15.0172 4.65714L12.4457 2.08571L13.2672 1.26428C13.4338 1.09762 13.6362 1.01428 13.8743 1.01428C14.1124 1.01428 14.3148 1.09762 14.4815 1.26428L15.8386 2.62142C16.0053 2.78809 16.0886 2.99047 16.0886 3.22857C16.0886 3.46666 16.0053 3.66904 15.8386 3.83571Z" fill="#798EB3"/>
</svg>
