<svg width="20" height="23" viewBox="0 0 20 23" fill="none" xmlns="http://www.w3.org/2000/svg">
<path d="M10.2605 22.65C11.0427 22.65 11.7027 22.3811 12.2405 21.8433C12.7783 21.3055 13.0471 20.6455 13.0471 19.8633H7.54714C7.54714 20.6455 7.80381 21.3055 8.31714 21.8433C8.83047 22.3811 9.47825 22.65 10.2605 22.65ZM10.2605 3.29L9.16047 3.50999C7.88936 3.75444 6.83825 4.38999 6.00714 5.41666C5.17603 6.44333 4.76048 7.59222 4.76048 8.86333C4.76048 9.40111 4.71159 10.11 4.61381 10.99C4.51603 12.0655 4.34492 13.0922 4.10048 14.07C3.85603 15.2922 3.5627 16.3189 3.22048 17.15H17.3005C16.9583 16.3189 16.6649 15.2922 16.4205 14.07C16.176 13.0922 16.0049 12.0655 15.9071 10.99C15.8094 10.11 15.7605 9.42555 15.7605 8.93666C15.7605 7.61666 15.3449 6.44333 14.5138 5.41666C13.6827 4.38999 12.6316 3.75444 11.3605 3.50999L10.2605 3.29ZM18.8405 17.15C19.1338 17.7855 19.476 18.25 19.8671 18.5433H0.653809C1.04492 18.25 1.38714 17.7855 1.68048 17.15C2.21825 16.0744 2.65825 14.5344 3.00048 12.53C3.24492 11.0144 3.36714 9.79222 3.36714 8.86333C3.36714 7.24999 3.8927 5.80777 4.94381 4.53666C5.99492 3.26555 7.3027 2.48333 8.86714 2.18999C8.86714 1.89666 8.92825 1.64 9.05048 1.41999C9.1727 1.2 9.34381 1.01666 9.56381 0.869995C9.78381 0.723328 10.016 0.649994 10.2605 0.649994C10.5049 0.649994 10.7371 0.723328 10.9571 0.869995C11.1771 1.01666 11.3483 1.2 11.4705 1.41999C11.5927 1.64 11.6538 1.89666 11.6538 2.18999C13.2183 2.48333 14.526 3.26555 15.5771 4.53666C16.6283 5.80777 17.1538 7.24999 17.1538 8.86333C17.1538 9.79222 17.276 11.0144 17.5205 12.53C17.8627 14.5344 18.3027 16.0744 18.8405 17.15Z" fill="#012970"/>
</svg>
