<svg width="9" height="5" viewBox="0 0 9 5" fill="none" xmlns="http://www.w3.org/2000/svg">
<mask id="path-1-inside-1_16_753" fill="white">
<path d="M0.199951 0.140015H8.19995V4.14001H0.199951V0.140015Z"/>
</mask>
<g clip-path="url(#paint0_diamond_16_753_clip_path)" data-figma-skip-parse="true" mask="url(#path-1-inside-1_16_753)"><g transform="matrix(0.004 0 0 0.004 4.19995 0.140015)"><rect x="0" y="0" width="1250" height="1250" fill="url(#paint0_diamond_16_753)" opacity="1" shape-rendering="crispEdges"/><rect x="0" y="0" width="1250" height="1250" transform="scale(1 -1)" fill="url(#paint0_diamond_16_753)" opacity="1" shape-rendering="crispEdges"/><rect x="0" y="0" width="1250" height="1250" transform="scale(-1 1)" fill="url(#paint0_diamond_16_753)" opacity="1" shape-rendering="crispEdges"/><rect x="0" y="0" width="1250" height="1250" transform="scale(-1)" fill="url(#paint0_diamond_16_753)" opacity="1" shape-rendering="crispEdges"/></g></g><path d="M0.199951 0.140015V-3.85999H-3.80005V0.140015H0.199951ZM8.19995 0.140015H12.2V-3.85999H8.19995V0.140015ZM0.199951 4.14001H8.19995V-3.85999H0.199951V4.14001ZM4.19995 0.140015V4.14001H12.2V0.140015H4.19995ZM4.19995 4.14001V0.140015H-3.80005V4.14001H4.19995Z" data-figma-gradient-fill="{&#34;type&#34;:&#34;GRADIENT_DIAMOND&#34;,&#34;stops&#34;:[{&#34;color&#34;:{&#34;r&#34;:0.0039215688593685627,&#34;g&#34;:0.16078431904315948,&#34;b&#34;:0.43921568989753723,&#34;a&#34;:1.0},&#34;position&#34;:0.99999988079071045},{&#34;color&#34;:{&#34;r&#34;:0.0,&#34;g&#34;:0.0,&#34;b&#34;:0.0,&#34;a&#34;:0.0},&#34;position&#34;:1.0}],&#34;stopsVar&#34;:[{&#34;color&#34;:{&#34;r&#34;:0.0039215688593685627,&#34;g&#34;:0.16078431904315948,&#34;b&#34;:0.43921568989753723,&#34;a&#34;:1.0},&#34;position&#34;:0.99999988079071045},{&#34;color&#34;:{&#34;r&#34;:0.0,&#34;g&#34;:0.0,&#34;b&#34;:0.0,&#34;a&#34;:0.0},&#34;position&#34;:1.0}],&#34;transform&#34;:{&#34;m00&#34;:8.0,&#34;m01&#34;:0.0,&#34;m02&#34;:0.1999511718750,&#34;m10&#34;:0.0,&#34;m11&#34;:8.0,&#34;m12&#34;:-3.85998535156250},&#34;opacity&#34;:1.0,&#34;blendMode&#34;:&#34;NORMAL&#34;,&#34;visible&#34;:true}" mask="url(#path-1-inside-1_16_753)"/>
<defs>
<clipPath id="paint0_diamond_16_753_clip_path"><path d="M0.199951 0.140015V-3.85999H-3.80005V0.140015H0.199951ZM8.19995 0.140015H12.2V-3.85999H8.19995V0.140015ZM0.199951 4.14001H8.19995V-3.85999H0.199951V4.14001ZM4.19995 0.140015V4.14001H12.2V0.140015H4.19995ZM4.19995 4.14001V0.140015H-3.80005V4.14001H4.19995Z" mask="url(#path-1-inside-1_16_753)"/></clipPath><linearGradient id="paint0_diamond_16_753" x1="0" y1="0" x2="500" y2="500" gradientUnits="userSpaceOnUse">
<stop offset="1" stop-color="#012970"/>
<stop offset="1" stop-opacity="0"/>
</linearGradient>
</defs>
</svg>
