<svg width="30" height="31" viewBox="0 0 30 31" fill="none" xmlns="http://www.w3.org/2000/svg">
<mask id="path-1-inside-1_16_242" fill="white">
<path d="M0.599991 4C0.599991 1.79086 2.39085 0 4.59999 0H29.2V30.6H4.59999C2.39086 30.6 0.599991 28.8091 0.599991 26.6V4Z"/>
</mask>
<path d="M29.2 0H30.2V-1H29.2V0ZM29.2 30.6V31.6H30.2V30.6H29.2ZM4.59999 1H29.2V-1H4.59999V1ZM28.2 0V30.6H30.2V0H28.2ZM29.2 29.6H4.59999V31.6H29.2V29.6ZM1.59999 26.6V4H-0.400009V26.6H1.59999ZM4.59999 29.6C2.94314 29.6 1.59999 28.2569 1.59999 26.6H-0.400009C-0.400009 29.3614 1.83857 31.6 4.59999 31.6V29.6ZM4.59999 -1C1.83857 -1 -0.400009 1.23858 -0.400009 4H1.59999C1.59999 2.34315 2.94314 1 4.59999 1V-1Z" fill="#DC3545" mask="url(#path-1-inside-1_16_242)"/>
<g clip-path="url(#clip0_16_242)">
<path d="M20.4 13.95V15.45C20.4 15.6583 20.3271 15.8354 20.1812 15.9812C20.0354 16.127 19.8583 16.2 19.65 16.2H16.4V19.45C16.4 19.6583 16.3271 19.8354 16.1812 19.9812C16.0354 20.127 15.8583 20.2 15.65 20.2H14.15C13.9417 20.2 13.7646 20.127 13.6187 19.9812C13.4729 19.8354 13.4 19.6583 13.4 19.45V16.2H10.15C9.94166 16.2 9.76458 16.127 9.61874 15.9812C9.47291 15.8354 9.39999 15.6583 9.39999 15.45V13.95C9.39999 13.7416 9.47291 13.5645 9.61874 13.4187C9.76458 13.2729 9.94166 13.2 10.15 13.2H13.4V9.94995C13.4 9.74162 13.4729 9.56453 13.6187 9.4187C13.7646 9.27287 13.9417 9.19995 14.15 9.19995H15.65C15.8583 9.19995 16.0354 9.27287 16.1812 9.4187C16.3271 9.56453 16.4 9.74162 16.4 9.94995V13.2H19.65C19.8583 13.2 20.0354 13.2729 20.1812 13.4187C20.3271 13.5645 20.4 13.7416 20.4 13.95Z" fill="#DC3545"/>
</g>
<defs>
<clipPath id="clip0_16_242">
<rect width="11" height="14.4" fill="white" transform="matrix(1 0 0 -1 9.39999 22.3999)"/>
</clipPath>
</defs>
</svg>
