<svg width="88" height="31" viewBox="0 0 88 31" fill="none" xmlns="http://www.w3.org/2000/svg">
<mask id="path-2-inside-1_16_241" fill="white">
<path d="M0.599991 4C0.599991 1.79086 2.39085 0 4.59999 0H29.2V30.6H4.59999C2.39086 30.6 0.599991 28.8091 0.599991 26.6V4Z"/>
</mask>
<path d="M29.2 0H30.2V-1H29.2V0ZM29.2 30.6V31.6H30.2V30.6H29.2ZM4.59999 1H29.2V-1H4.59999V1ZM28.2 0V30.6H30.2V0H28.2ZM29.2 29.6H4.59999V31.6H29.2V29.6ZM1.59999 26.6V4H-0.400009V26.6H1.59999ZM4.59999 29.6C2.94314 29.6 1.59999 28.2569 1.59999 26.6H-0.400009C-0.400009 29.3614 1.83857 31.6 4.59999 31.6V29.6ZM4.59999 -1C1.83857 -1 -0.400009 1.23858 -0.400009 4H1.59999C1.59999 2.34315 2.94314 1 4.59999 1V-1Z" fill="#DC3545" mask="url(#path-2-inside-1_16_241)"/>
<g clip-path="url(#clip0_16_241)">
<path d="M20.4 13.95V15.45C20.4 15.6583 20.3271 15.8354 20.1812 15.9812C20.0354 16.127 19.8583 16.2 19.65 16.2H16.4V19.45C16.4 19.6583 16.3271 19.8354 16.1812 19.9812C16.0354 20.127 15.8583 20.2 15.65 20.2H14.15C13.9417 20.2 13.7646 20.127 13.6187 19.9812C13.4729 19.8354 13.4 19.6583 13.4 19.45V16.2H10.15C9.94166 16.2 9.76458 16.127 9.61874 15.9812C9.47291 15.8354 9.39999 15.6583 9.39999 15.45V13.95C9.39999 13.7416 9.47291 13.5645 9.61874 13.4187C9.76458 13.2729 9.94166 13.2 10.15 13.2H13.4V9.94995C13.4 9.74162 13.4729 9.56453 13.6187 9.4187C13.7646 9.27287 13.9417 9.19995 14.15 9.19995H15.65C15.8583 9.19995 16.0354 9.27287 16.1812 9.4187C16.3271 9.56453 16.4 9.74162 16.4 9.94995V13.2H19.65C19.8583 13.2 20.0354 13.2729 20.1812 13.4187C20.3271 13.5645 20.4 13.7416 20.4 13.95Z" fill="#DC3545"/>
</g>
<g opacity="0.65">
<mask id="path-5-inside-2_16_241" fill="white">
<path d="M28.2 0H59.8V30.6H28.2V0Z"/>
</mask>
<path d="M28.2 0V-1H27.2V0H28.2ZM59.8 0H60.8V-1H59.8V0ZM59.8 30.6V31.6H60.8V30.6H59.8ZM28.2 30.6H27.2V31.6H28.2V30.6ZM28.2 1H59.8V-1H28.2V1ZM58.8 0V30.6H60.8V0H58.8ZM59.8 29.6H28.2V31.6H59.8V29.6ZM29.2 30.6V0H27.2V30.6H29.2Z" fill="#DC3545" mask="url(#path-5-inside-2_16_241)"/>
<g clip-path="url(#clip1_16_241)">
<path d="M43.9375 17.45L44.8437 16.5437L43.6562 15.3562L42.75 16.2625V16.7H43.5V17.45H43.9375ZM47.3672 12.0828C47.4557 11.9942 47.4583 11.9083 47.375 11.825C47.2917 11.7416 47.2057 11.7442 47.1172 11.8328L44.3828 14.5671C44.2943 14.6557 44.2917 14.7416 44.375 14.825C44.4583 14.9083 44.5443 14.9057 44.6328 14.8171L47.3672 12.0828ZM48 16.4656V17.95C48 18.5697 47.7799 19.0997 47.3398 19.5398C46.8997 19.9799 46.3698 20.2 45.75 20.2H39.25C38.6302 20.2 38.1003 19.9799 37.6601 19.5398C37.22 19.0997 37 18.5697 37 17.95V11.45C37 10.8302 37.22 10.3002 37.6601 9.86011C38.1003 9.42 38.6302 9.19995 39.25 9.19995H45.75C46.0781 9.19995 46.3828 9.26506 46.6641 9.39526C46.7422 9.43172 46.7891 9.49162 46.8047 9.57495C46.8203 9.66349 46.7969 9.73901 46.7344 9.80151L46.3516 10.1843C46.2786 10.2572 46.1953 10.2781 46.1016 10.2468C45.9818 10.2156 45.8646 10.2 45.75 10.2H39.25C38.9062 10.2 38.612 10.3223 38.3672 10.5671C38.1224 10.8119 38 11.1062 38 11.45V17.95C38 18.2937 38.1224 18.588 38.3672 18.8328C38.612 19.0776 38.9062 19.2 39.25 19.2H45.75C46.0937 19.2 46.388 19.0776 46.6328 18.8328C46.8776 18.588 47 18.2937 47 17.95V16.9656C47 16.8979 47.0234 16.8406 47.0703 16.7937L47.5703 16.2937C47.6484 16.2156 47.7396 16.1973 47.8437 16.239C47.9479 16.2807 48 16.3562 48 16.4656ZM47.25 10.7L49.5 12.95L44.25 18.2H42V15.95L47.25 10.7ZM50.7187 11.7312L50 12.45L47.75 10.2L48.4687 9.4812C48.6146 9.33537 48.7917 9.26245 49 9.26245C49.2083 9.26245 49.3854 9.33537 49.5312 9.4812L50.7187 10.6687C50.8646 10.8145 50.9375 10.9916 50.9375 11.2C50.9375 11.4083 50.8646 11.5854 50.7187 11.7312Z" fill="#DC3545"/>
</g>
</g>
<g opacity="0.65">
<mask id="path-8-inside-3_16_241" fill="white">
<path d="M58.8 0H83.4C85.6091 0 87.4 1.79086 87.4 4V26.6C87.4 28.8091 85.6091 30.6 83.4 30.6H58.8V0Z"/>
</mask>
<path d="M58.8 0V-1H57.8V0H58.8ZM58.8 30.6H57.8V31.6H58.8V30.6ZM58.8 1H83.4V-1H58.8V1ZM86.4 4V26.6H88.4V4H86.4ZM83.4 29.6H58.8V31.6H83.4V29.6ZM59.8 30.6V0H57.8V30.6H59.8ZM86.4 26.6C86.4 28.2569 85.0568 29.6 83.4 29.6V31.6C86.1614 31.6 88.4 29.3614 88.4 26.6H86.4ZM83.4 1C85.0568 1 86.4 2.34315 86.4 4H88.4C88.4 1.23857 86.1614 -1 83.4 -1V1Z" fill="#DC3545" mask="url(#path-8-inside-3_16_241)"/>
<g clip-path="url(#clip2_16_241)">
<path d="M78.6 13.95V15.45C78.6 15.6583 78.5271 15.8354 78.3812 15.9812C78.2354 16.127 78.0583 16.2 77.85 16.2H68.35C68.1417 16.2 67.9646 16.127 67.8187 15.9812C67.6729 15.8354 67.6 15.6583 67.6 15.45V13.95C67.6 13.7416 67.6729 13.5645 67.8187 13.4187C67.9646 13.2729 68.1417 13.2 68.35 13.2H77.85C78.0583 13.2 78.2354 13.2729 78.3812 13.4187C78.5271 13.5645 78.6 13.7416 78.6 13.95Z" fill="#DC3545"/>
</g>
</g>
<defs>
<clipPath id="clip0_16_241">
<rect width="11" height="14.4" fill="white" transform="matrix(1 0 0 -1 9.39999 22.3999)"/>
</clipPath>
<clipPath id="clip1_16_241">
<rect width="14" height="14.4" fill="white" transform="matrix(1 0 0 -1 37 22.3999)"/>
</clipPath>
<clipPath id="clip2_16_241">
<rect width="11" height="14.4" fill="white" transform="matrix(1 0 0 -1 67.6 22.3999)"/>
</clipPath>
</defs>
</svg>
