<svg width="61" height="31" viewBox="0 0 61 31" fill="none" xmlns="http://www.w3.org/2000/svg">
<mask id="path-2-inside-1_16_230" fill="white">
<path d="M0.399994 4C0.399994 1.79086 2.19085 0 4.39999 0H31V30.6H4.4C2.19086 30.6 0.399994 28.8091 0.399994 26.6V4Z"/>
</mask>
<path d="M31 0H32V-1H31V0ZM31 30.6V31.6H32V30.6H31ZM4.39999 1H31V-1H4.39999V1ZM30 0V30.6H32V0H30ZM31 29.6H4.4V31.6H31V29.6ZM1.39999 26.6V4H-0.600006V26.6H1.39999ZM4.4 29.6C2.74314 29.6 1.39999 28.2569 1.39999 26.6H-0.600006C-0.600006 29.3614 1.63857 31.6 4.4 31.6V29.6ZM4.39999 -1C1.63857 -1 -0.600006 1.23858 -0.600006 4H1.39999C1.39999 2.34315 2.74314 1 4.39999 1V-1Z" fill="#198754" mask="url(#path-2-inside-1_16_230)"/>
<g clip-path="url(#clip0_16_230)">
<path d="M19.0516 20.0515C19.0516 20.0515 19.0763 20.0268 19.1258 19.9773C19.1753 19.9278 19.2 19.8354 19.2 19.7C19.2 19.5645 19.1505 19.4473 19.0516 19.3484C18.9526 19.2494 18.8354 19.2 18.7 19.2C18.5646 19.2 18.4474 19.2494 18.3484 19.3484C18.2495 19.4473 18.2 19.5645 18.2 19.7C18.2 19.8354 18.2495 19.9526 18.3484 20.0515C18.4474 20.1505 18.5646 20.2 18.7 20.2C18.8354 20.2 18.9526 20.1505 19.0516 20.0515ZM21.0516 20.0515C21.0516 20.0515 21.0763 20.0268 21.1258 19.9773C21.1753 19.9278 21.2 19.8354 21.2 19.7C21.2 19.5645 21.1505 19.4473 21.0516 19.3484C20.9526 19.2494 20.8354 19.2 20.7 19.2C20.5646 19.2 20.4474 19.2494 20.3484 19.3484C20.2495 19.4473 20.2 19.5645 20.2 19.7C20.2 19.8354 20.2495 19.9526 20.3484 20.0515C20.4474 20.1505 20.5646 20.2 20.7 20.2C20.8354 20.2 20.9526 20.1505 21.0516 20.0515ZM22.2 17.95V20.45C22.2 20.6583 22.1271 20.8354 21.9812 20.9812C21.8354 21.127 21.6583 21.2 21.45 21.2H9.95C9.74166 21.2 9.56458 21.127 9.41875 20.9812C9.27291 20.8354 9.2 20.6583 9.2 20.45V17.95C9.2 17.7416 9.27291 17.5645 9.41875 17.4187C9.56458 17.2729 9.74166 17.2 9.95 17.2H13.2859C13.3953 17.4916 13.5789 17.7312 13.8367 17.9187C14.0945 18.1062 14.3823 18.2 14.7 18.2H16.7C17.0177 18.2 17.3055 18.1062 17.5633 17.9187C17.8211 17.7312 18.0047 17.4916 18.1141 17.2H21.45C21.6583 17.2 21.8354 17.2729 21.9812 17.4187C22.1271 17.5645 22.2 17.7416 22.2 17.95ZM19.6609 12.8875C19.5724 13.0958 19.4187 13.2 19.2 13.2H17.2V16.7C17.2 16.8354 17.1505 16.9526 17.0516 17.0515C16.9526 17.1505 16.8354 17.2 16.7 17.2H14.7C14.5646 17.2 14.4474 17.1505 14.3484 17.0515C14.2495 16.9526 14.2 16.8354 14.2 16.7V13.2H12.2C11.9812 13.2 11.8276 13.0958 11.7391 12.8875C11.6505 12.6843 11.687 12.5046 11.8484 12.3484L15.3484 8.84839C15.4422 8.74943 15.5594 8.69995 15.7 8.69995C15.8406 8.69995 15.9578 8.74943 16.0516 8.84839L19.5516 12.3484C19.713 12.5046 19.7495 12.6843 19.6609 12.8875Z" fill="#198754"/>
</g>
<mask id="path-5-inside-2_16_230" fill="white">
<path d="M30 0H56.6C58.8091 0 60.6 1.79086 60.6 4V26.6C60.6 28.8091 58.8091 30.6 56.6 30.6H30V0Z"/>
</mask>
<path d="M30 0V-1H29V0H30ZM30 30.6H29V31.6H30V30.6ZM30 1H56.6V-1H30V1ZM59.6 4V26.6H61.6V4H59.6ZM56.6 29.6H30V31.6H56.6V29.6ZM31 30.6V0H29V30.6H31ZM59.6 26.6C59.6 28.2569 58.2569 29.6 56.6 29.6V31.6C59.3614 31.6 61.6 29.3614 61.6 26.6H59.6ZM56.6 1C58.2569 1 59.6 2.34315 59.6 4H61.6C61.6 1.23857 59.3614 -1 56.6 -1V1Z" fill="#198754" mask="url(#path-5-inside-2_16_230)"/>
<g clip-path="url(#clip1_16_230)">
<path d="M48.6516 19.0515C48.6516 19.0515 48.6763 19.0268 48.7258 18.9773C48.7753 18.9278 48.8 18.8354 48.8 18.7C48.8 18.5645 48.7505 18.4473 48.6516 18.3484C48.5526 18.2494 48.4354 18.2 48.3 18.2C48.1646 18.2 48.0474 18.2494 47.9484 18.3484C47.8495 18.4473 47.8 18.5645 47.8 18.7C47.8 18.8354 47.8495 18.9526 47.9484 19.0515C48.0474 19.1505 48.1646 19.2 48.3 19.2C48.4354 19.2 48.5526 19.1505 48.6516 19.0515ZM50.6516 19.0515C50.6516 19.0515 50.6763 19.0268 50.7258 18.9773C50.7753 18.9278 50.8 18.8354 50.8 18.7C50.8 18.5645 50.7505 18.4473 50.6516 18.3484C50.5526 18.2494 50.4354 18.2 50.3 18.2C50.1646 18.2 50.0474 18.2494 49.9484 18.3484C49.8495 18.4473 49.8 18.5645 49.8 18.7C49.8 18.8354 49.8495 18.9526 49.9484 19.0515C50.0474 19.1505 50.1646 19.2 50.3 19.2C50.4354 19.2 50.5526 19.1505 50.6516 19.0515ZM51.8 16.95V19.45C51.8 19.6583 51.7271 19.8354 51.5813 19.9812C51.4354 20.127 51.2583 20.2 51.05 20.2H39.55C39.3417 20.2 39.1646 20.127 39.0188 19.9812C38.8729 19.8354 38.8 19.6583 38.8 19.45V16.95C38.8 16.7416 38.8729 16.5645 39.0188 16.4187C39.1646 16.2729 39.3417 16.2 39.55 16.2H43.1828L44.2375 17.2625C44.5396 17.5541 44.8938 17.7 45.3 17.7C45.7063 17.7 46.0604 17.5541 46.3625 17.2625L47.425 16.2H51.05C51.2583 16.2 51.4354 16.2729 51.5813 16.4187C51.7271 16.5645 51.8 16.7416 51.8 16.95ZM49.2609 12.5046C49.3495 12.7182 49.313 12.9005 49.1516 13.0515L45.6516 16.5515C45.5578 16.6505 45.4406 16.7 45.3 16.7C45.1594 16.7 45.0422 16.6505 44.9484 16.5515L41.4484 13.0515C41.287 12.9005 41.2505 12.7182 41.3391 12.5046C41.4276 12.3015 41.5813 12.2 41.8 12.2H43.8V8.69995C43.8 8.56453 43.8495 8.44735 43.9484 8.34839C44.0474 8.24943 44.1646 8.19995 44.3 8.19995H46.3C46.4354 8.19995 46.5526 8.24943 46.6516 8.34839C46.7505 8.44735 46.8 8.56453 46.8 8.69995V12.2H48.8C49.0188 12.2 49.1724 12.3015 49.2609 12.5046Z" fill="#198754"/>
</g>
<defs>
<clipPath id="clip0_16_230">
<rect width="13" height="14.4" fill="white" transform="matrix(1 0 0 -1 9.2 22.3999)"/>
</clipPath>
<clipPath id="clip1_16_230">
<rect width="13" height="14.4" fill="white" transform="matrix(1 0 0 -1 38.8 22.3999)"/>
</clipPath>
</defs>
</svg>
