<svg width="14" height="14" viewBox="0 0 14 14" fill="none" xmlns="http://www.w3.org/2000/svg">
<path d="M10.0516 12.0515C10.0516 12.0515 10.0763 12.0268 10.1258 11.9773C10.1753 11.9278 10.2 11.8354 10.2 11.7C10.2 11.5645 10.1505 11.4473 10.0516 11.3484C9.9526 11.2494 9.83541 11.2 9.7 11.2C9.56458 11.2 9.44739 11.2494 9.34843 11.3484C9.24948 11.4473 9.2 11.5645 9.2 11.7C9.2 11.8354 9.24948 11.9526 9.34843 12.0515C9.44739 12.1505 9.56458 12.2 9.7 12.2C9.83541 12.2 9.9526 12.1505 10.0516 12.0515ZM12.0516 12.0515C12.0516 12.0515 12.0763 12.0268 12.1258 11.9773C12.1753 11.9278 12.2 11.8354 12.2 11.7C12.2 11.5645 12.1505 11.4473 12.0516 11.3484C11.9526 11.2494 11.8354 11.2 11.7 11.2C11.5646 11.2 11.4474 11.2494 11.3484 11.3484C11.2495 11.4473 11.2 11.5645 11.2 11.7C11.2 11.8354 11.2495 11.9526 11.3484 12.0515C11.4474 12.1505 11.5646 12.2 11.7 12.2C11.8354 12.2 11.9526 12.1505 12.0516 12.0515ZM13.2 9.94995V12.45C13.2 12.6583 13.1271 12.8354 12.9812 12.9812C12.8354 13.127 12.6583 13.2 12.45 13.2H0.949997C0.741664 13.2 0.56458 13.127 0.418747 12.9812C0.272914 12.8354 0.199997 12.6583 0.199997 12.45V9.94995C0.199997 9.74162 0.272914 9.56453 0.418747 9.4187C0.56458 9.27287 0.741664 9.19995 0.949997 9.19995H4.28593C4.39531 9.49162 4.5789 9.7312 4.83672 9.9187C5.09453 10.1062 5.38229 10.2 5.7 10.2H7.7C8.01771 10.2 8.30547 10.1062 8.56328 9.9187C8.82109 9.7312 9.00468 9.49162 9.11406 9.19995H12.45C12.6583 9.19995 12.8354 9.27287 12.9812 9.4187C13.1271 9.56453 13.2 9.74162 13.2 9.94995ZM10.6609 4.88745C10.5724 5.09578 10.4187 5.19995 10.2 5.19995H8.2V8.69995C8.2 8.83537 8.15052 8.95256 8.05156 9.05151C7.9526 9.15047 7.83541 9.19995 7.7 9.19995H5.7C5.56458 9.19995 5.44739 9.15047 5.34843 9.05151C5.24948 8.95256 5.2 8.83537 5.2 8.69995V5.19995H3.2C2.98125 5.19995 2.8276 5.09578 2.73906 4.88745C2.65052 4.68433 2.68698 4.50464 2.84843 4.34839L6.34843 0.848389C6.44218 0.749431 6.55937 0.699951 6.7 0.699951C6.84062 0.699951 6.95781 0.749431 7.05156 0.848389L10.5516 4.34839C10.713 4.50464 10.7495 4.68433 10.6609 4.88745Z" fill="#198754"/>
</svg>
