<svg width="14" height="14" viewBox="0 0 14 13" fill="none" xmlns="http://www.w3.org/2000/svg">
<path d="M10.6516 11.0515C10.6516 11.0515 10.6763 11.0268 10.7258 10.9773C10.7753 10.9278 10.8 10.8354 10.8 10.7C10.8 10.5645 10.7505 10.4473 10.6516 10.3484C10.5526 10.2494 10.4354 10.2 10.3 10.2C10.1646 10.2 10.0474 10.2494 9.94844 10.3484C9.84948 10.4473 9.8 10.5645 9.8 10.7C9.8 10.8354 9.84948 10.9526 9.94844 11.0515C10.0474 11.1505 10.1646 11.2 10.3 11.2C10.4354 11.2 10.5526 11.1505 10.6516 11.0515ZM12.6516 11.0515C12.6516 11.0515 12.6763 11.0268 12.7258 10.9773C12.7753 10.9278 12.8 10.8354 12.8 10.7C12.8 10.5645 12.7505 10.4473 12.6516 10.3484C12.5526 10.2494 12.4354 10.2 12.3 10.2C12.1646 10.2 12.0474 10.2494 11.9484 10.3484C11.8495 10.4473 11.8 10.5645 11.8 10.7C11.8 10.8354 11.8495 10.9526 11.9484 11.0515C12.0474 11.1505 12.1646 11.2 12.3 11.2C12.4354 11.2 12.5526 11.1505 12.6516 11.0515ZM13.8 8.94995V11.45C13.8 11.6583 13.7271 11.8354 13.5813 11.9812C13.4354 12.127 13.2583 12.2 13.05 12.2H1.55C1.34167 12.2 1.16459 12.127 1.01875 11.9812C0.87292 11.8354 0.800003 11.6583 0.800003 11.45V8.94995C0.800003 8.74162 0.87292 8.56453 1.01875 8.4187C1.16459 8.27287 1.34167 8.19995 1.55 8.19995H5.18282L6.2375 9.26245C6.53959 9.55412 6.89375 9.69995 7.3 9.69995C7.70625 9.69995 8.06042 9.55412 8.3625 9.26245L9.425 8.19995H13.05C13.2583 8.19995 13.4354 8.27287 13.5813 8.4187C13.7271 8.56453 13.8 8.74162 13.8 8.94995ZM11.2609 4.50464C11.3495 4.71818 11.313 4.90047 11.1516 5.05151L7.65157 8.55151C7.55782 8.65047 7.44063 8.69995 7.3 8.69995C7.15938 8.69995 7.04219 8.65047 6.94844 8.55151L3.44844 5.05151C3.28698 4.90047 3.25052 4.71818 3.33907 4.50464C3.42761 4.30151 3.58125 4.19995 3.8 4.19995H5.8V0.699951C5.8 0.564534 5.84948 0.447347 5.94844 0.348389C6.0474 0.249431 6.16459 0.199951 6.3 0.199951H8.3C8.43542 0.199951 8.55261 0.249431 8.65157 0.348389C8.75052 0.447347 8.8 0.564534 8.8 0.699951V4.19995H10.8C11.0188 4.19995 11.1724 4.30151 11.2609 4.50464Z" fill="#198754"/>
</svg>
