<svg width="23" height="18" viewBox="0 0 23 18" fill="none" xmlns="http://www.w3.org/2000/svg">
<path d="M0.260254 3.14998C0.260254 3.00331 0.284698 2.85665 0.333587 2.70998C0.382476 2.36776 0.480254 2.04998 0.626921 1.75665C0.822476 1.36554 1.11581 1.03554 1.50692 0.766647C1.89803 0.497759 2.41136 0.363316 3.04692 0.363316H19.5469L19.9136 0.436647C20.2558 0.485537 20.5736 0.583315 20.8669 0.729982C21.258 0.925537 21.588 1.21887 21.8569 1.60998C22.1258 2.00109 22.2603 2.51443 22.2603 3.14998V11.3633L22.1869 11.8033C22.138 12.1455 22.0403 12.4633 21.8936 12.7566C21.698 13.1478 21.4047 13.4778 21.0136 13.7466C20.6225 14.0155 20.1336 14.15 19.5469 14.15H14.0469C14.0469 15.0789 14.1447 15.7633 14.3403 16.2033H15.3669C15.5625 16.2033 15.7336 16.2766 15.8803 16.4233C16.0269 16.57 16.1003 16.7289 16.1003 16.9C16.1003 17.0711 16.0269 17.23 15.8803 17.3766C15.7336 17.5233 15.5625 17.5966 15.3669 17.5966H7.15359C6.95803 17.5966 6.78692 17.5233 6.64025 17.3766C6.49359 17.23 6.42025 17.0711 6.42025 16.9C6.42025 16.7289 6.49359 16.57 6.64025 16.4233C6.78692 16.2766 6.95803 16.2033 7.15359 16.2033H8.18025C8.4247 15.7633 8.54692 15.0789 8.54692 14.15H3.04692L2.60692 14.0766C2.2647 14.0278 1.94692 13.93 1.65359 13.7833C1.26248 13.5878 0.932476 13.2944 0.663587 12.9033C0.394698 12.5122 0.260254 11.9989 0.260254 11.3633V3.14998ZM2.16692 1.97665C2.02025 2.07443 1.89803 2.23331 1.80025 2.45331C1.70248 2.67332 1.65359 2.90554 1.65359 3.14998V11.3633C1.65359 11.7544 1.70248 12.0355 1.80025 12.2066C1.89803 12.3778 2.05692 12.5122 2.27692 12.61C2.49692 12.7078 2.72914 12.7566 2.97359 12.7566H19.5469C19.8891 12.7566 20.1458 12.6955 20.3169 12.5733C20.488 12.4511 20.6225 12.2922 20.7203 12.0966C20.818 11.9011 20.8669 11.6811 20.8669 11.4366V3.14998C20.8669 2.80776 20.8058 2.55109 20.6836 2.37998C20.5614 2.20887 20.4025 2.07443 20.2069 1.97665C20.0114 1.87887 19.7669 1.80554 19.4736 1.75665H3.04692C2.65581 1.75665 2.36248 1.82998 2.16692 1.97665Z" fill="#012970"/>
</svg>
