<svg width="16" height="16" viewBox="0 0 16 16" fill="none" xmlns="http://www.w3.org/2000/svg">
<path d="M0 2.09334C0 1.66667 0.142222 1.31111 0.426667 1.02667C0.711111 0.742225 1.06667 0.600003 1.49333 0.600003H14.5067C14.9333 0.600003 15.2889 0.742225 15.5733 1.02667C15.8578 1.31111 16 1.66667 16 2.09334V4.12C16 4.51111 15.8578 4.85778 15.5733 5.16C15.2889 5.46222 14.9333 5.61334 14.5067 5.61334H1.49333C1.06667 5.61334 0.711111 5.46222 0.426667 5.16C0.142222 4.85778 0 4.51111 0 4.12V2.09334ZM1.49333 1.61334C1.35111 1.61334 1.23556 1.65778 1.14667 1.74667C1.05778 1.83556 1.01333 1.95111 1.01333 2.09334V4.12C1.01333 4.26223 1.05778 4.37778 1.14667 4.46667C1.23556 4.55556 1.35111 4.6 1.49333 4.6H14.5067C14.6489 4.6 14.7644 4.55556 14.8533 4.46667C14.9422 4.37778 14.9867 4.26223 14.9867 4.12V2.09334C14.9867 1.95111 14.9422 1.83556 14.8533 1.74667C14.7644 1.65778 14.6489 1.61334 14.5067 1.61334H1.49333ZM2.02667 3.10667C2.02667 2.96445 2.07111 2.84 2.16 2.73334C2.24889 2.62667 2.36444 2.57334 2.50667 2.57334H5.49333C5.63556 2.57334 5.76 2.62667 5.86667 2.73334C5.97333 2.84 6.01778 2.96445 6 3.10667C5.98222 3.24889 5.92889 3.36445 5.84 3.45334C5.75111 3.54222 5.63556 3.58667 5.49333 3.58667H2.50667C2.36444 3.58667 2.24889 3.54222 2.16 3.45334C2.07111 3.36445 2.02667 3.24889 2.02667 3.10667ZM12.8 3.42667L12.4267 3.05334C12.3556 2.94667 12.3378 2.84 12.3733 2.73334C12.4089 2.62667 12.48 2.57334 12.5867 2.57334H13.3867C13.4933 2.57334 13.5733 2.62667 13.6267 2.73334C13.68 2.84 13.6533 2.94667 13.5467 3.05334L13.1733 3.42667C13.1378 3.46222 13.0844 3.48 13.0133 3.48C12.9422 3.48 12.8711 3.46222 12.8 3.42667ZM0 8.6C0 8.03111 0.195556 7.55111 0.586667 7.16C0.977778 6.76889 1.45778 6.57334 2.02667 6.57334H14.0267C14.56 6.57334 15.0222 6.76889 15.4133 7.16C15.8044 7.55111 16 8.03111 16 8.6V13.6133C16 14.1467 15.8044 14.6089 15.4133 15C15.0222 15.3911 14.5422 15.5867 13.9733 15.5867H2.02667C1.45778 15.5867 0.977778 15.3911 0.586667 15C0.195556 14.6089 0 14.1467 0 13.6133V8.6ZM1.01333 11.5867V13.6133C1.01333 13.8978 1.11111 14.1289 1.30667 14.3067C1.50222 14.4844 1.74222 14.5733 2.02667 14.5733H14.0267C14.2756 14.5733 14.4978 14.4844 14.6933 14.3067C14.8889 14.1289 14.9867 13.8978 14.9867 13.6133V11.5867H1.01333ZM14.9867 10.5733V8.6C14.9867 8.31556 14.8889 8.07556 14.6933 7.88C14.4978 7.68445 14.2756 7.58667 14.0267 7.58667H2.02667C1.74222 7.58667 1.50222 7.68445 1.30667 7.88C1.11111 8.07556 1.01333 8.31556 1.01333 8.6V10.5733H14.9867ZM2.02667 9.08C2.02667 8.93778 2.07111 8.82223 2.16 8.73334C2.24889 8.64445 2.36444 8.6 2.50667 8.6H11.52C11.6622 8.6 11.7778 8.64445 11.8667 8.73334C11.9556 8.82223 12 8.93778 12 9.08C12 9.22223 11.9556 9.34667 11.8667 9.45334C11.7778 9.56 11.6622 9.61334 11.52 9.61334H2.50667C2.36444 9.61334 2.24889 9.56 2.16 9.45334C2.07111 9.34667 2.02667 9.22223 2.02667 9.08ZM2.02667 13.08C2.02667 12.9378 2.07111 12.8222 2.16 12.7333C2.24889 12.6444 2.36444 12.6 2.50667 12.6H8.48C8.62222 12.6 8.74667 12.6444 8.85333 12.7333C8.96 12.8222 9.01333 12.9378 9.01333 13.08C9.01333 13.2222 8.96 13.3467 8.85333 13.4533C8.74667 13.56 8.62222 13.6133 8.48 13.6133H2.50667C2.36444 13.6133 2.24889 13.56 2.16 13.4533C2.07111 13.3467 2.02667 13.2222 2.02667 13.08Z" fill="#4154F1"/>
</svg>
