<svg width="15" height="17" viewBox="0 0 15 17" fill="none" xmlns="http://www.w3.org/2000/svg">
<path d="M5.01333 11.1067C5.01333 10.9645 5.05778 10.84 5.14667 10.7333C5.23556 10.6267 5.35111 10.5733 5.49333 10.5733H7.52C7.66222 10.6089 7.77778 10.6711 7.86667 10.76C7.95556 10.8489 8 10.9645 8 11.1067C8 11.2489 7.95556 11.3645 7.86667 11.4533C7.77778 11.5422 7.66222 11.5867 7.52 11.5867H5.49333C5.35111 11.5867 5.23556 11.5422 5.14667 11.4533C5.05778 11.3645 5.01333 11.2489 5.01333 11.1067ZM5.01333 9.08001C5.01333 8.93778 5.05778 8.82223 5.14667 8.73334C5.23556 8.64445 5.35111 8.60001 5.49333 8.60001H10.5067C10.6489 8.60001 10.7644 8.64445 10.8533 8.73334C10.9422 8.82223 10.9867 8.93778 10.9867 9.08001C10.9867 9.22223 10.9422 9.34667 10.8533 9.45334C10.7644 9.56001 10.6489 9.61334 10.5067 9.61334H5.49333C5.35111 9.61334 5.23556 9.56001 5.14667 9.45334C5.05778 9.34667 5.01333 9.22223 5.01333 9.08001ZM5.01333 7.10667C5.01333 6.96445 5.05778 6.84001 5.14667 6.73334C5.23556 6.62667 5.35111 6.57334 5.49333 6.57334H10.5067C10.6489 6.57334 10.7644 6.62667 10.8533 6.73334C10.9422 6.84001 10.9867 6.96445 10.9867 7.10667C10.9867 7.24889 10.9422 7.36445 10.8533 7.45334C10.7644 7.54223 10.6489 7.58667 10.5067 7.58667H5.49333C5.35111 7.58667 5.23556 7.54223 5.14667 7.45334C5.05778 7.36445 5.01333 7.24889 5.01333 7.10667ZM5.01333 5.08001C5.01333 4.93778 5.05778 4.82223 5.14667 4.73334C5.23556 4.64445 5.35111 4.60001 5.49333 4.60001H10.5067C10.6489 4.60001 10.7644 4.64445 10.8533 4.73334C10.9422 4.82223 10.9867 4.93778 10.9867 5.08001C10.9867 5.22223 10.9422 5.34667 10.8533 5.45334C10.7644 5.56001 10.6489 5.61334 10.5067 5.61334H5.49333C5.35111 5.61334 5.23556 5.56001 5.14667 5.45334C5.05778 5.34667 5.01333 5.22223 5.01333 5.08001ZM2.98667 0.600006H13.0133C13.5467 0.600006 14.0089 0.795561 14.4 1.18667C14.7911 1.57778 14.9867 2.05778 14.9867 2.62667V14.5733C14.9867 15.1422 14.7911 15.6222 14.4 16.0133C14.0089 16.4045 13.5467 16.6 13.0133 16.6H2.98667C2.45333 16.6 1.99111 16.4045 1.6 16.0133C1.20889 15.6222 1.01333 15.16 1.01333 14.6267V13.6133H2.02667V14.5733C2.02667 14.8578 2.11556 15.0978 2.29333 15.2933C2.47111 15.4889 2.70222 15.5867 2.98667 15.5867H13.0133C13.2978 15.5867 13.5378 15.4889 13.7333 15.2933C13.9289 15.0978 14.0267 14.8578 14.0267 14.5733V2.57334C14.0267 2.32445 13.9289 2.10223 13.7333 1.90667C13.5378 1.71112 13.2978 1.61334 13.0133 1.61334H2.98667C2.70222 1.61334 2.47111 1.71112 2.29333 1.90667C2.11556 2.10223 2.02667 2.32445 2.02667 2.57334V3.58667H1.01333V2.57334C1.01333 2.04001 1.20889 1.57778 1.6 1.18667C1.99111 0.795561 2.45333 0.600006 2.98667 0.600006ZM1.01333 5.61334V5.08001C1.01333 4.93778 1.05778 4.82223 1.14667 4.73334C1.23556 4.64445 1.35111 4.60001 1.49333 4.60001C1.63556 4.60001 1.76 4.64445 1.86667 4.73334C1.97333 4.82223 2.02667 4.93778 2.02667 5.08001V5.61334H2.50667C2.64889 5.61334 2.76444 5.65778 2.85333 5.74667C2.94222 5.83556 2.98667 5.95112 2.98667 6.09334C2.98667 6.23556 2.94222 6.36001 2.85333 6.46667C2.76444 6.57334 2.64889 6.62667 2.50667 6.62667H0.48C0.337778 6.59112 0.222222 6.52889 0.133333 6.44001C0.0444444 6.35112 0 6.23556 0 6.09334C0 5.95112 0.0444444 5.83556 0.133333 5.74667C0.222222 5.65778 0.337778 5.61334 0.48 5.61334H1.01333ZM1.01333 8.60001V8.12001C1.01333 7.97778 1.05778 7.85334 1.14667 7.74667C1.23556 7.64001 1.35111 7.58667 1.49333 7.58667C1.63556 7.58667 1.76 7.64001 1.86667 7.74667C1.97333 7.85334 2.02667 7.97778 2.02667 8.12001V8.60001H2.50667C2.64889 8.60001 2.76444 8.64445 2.85333 8.73334C2.94222 8.82223 2.98667 8.93778 2.98667 9.08001C2.98667 9.22223 2.94222 9.34667 2.85333 9.45334C2.76444 9.56001 2.64889 9.61334 2.50667 9.61334H0.48C0.337778 9.61334 0.222222 9.56001 0.133333 9.45334C0.0444444 9.34667 0 9.22223 0 9.08001C0 8.93778 0.0444444 8.82223 0.133333 8.73334C0.222222 8.64445 0.337778 8.60001 0.48 8.60001H1.01333ZM1.01333 11.5867V11.1067C1.01333 10.9645 1.05778 10.84 1.14667 10.7333C1.23556 10.6267 1.35111 10.5822 1.49333 10.6C1.63556 10.6178 1.76 10.6711 1.86667 10.76C1.97333 10.8489 2.02667 10.9645 2.02667 11.1067V11.5867H2.50667C2.64889 11.5867 2.76444 11.64 2.85333 11.7467C2.94222 11.8533 2.98667 11.9778 2.98667 12.12C2.98667 12.2622 2.94222 12.3778 2.85333 12.4667C2.76444 12.5556 2.64889 12.6 2.50667 12.6H0.48C0.337778 12.6 0.222222 12.5556 0.133333 12.4667C0.0444444 12.3778 0 12.2622 0 12.12C0 11.9778 0.0444444 11.8533 0.133333 11.7467C0.222222 11.64 0.337778 11.5867 0.48 11.5867H1.01333Z" fill="#899BBD"/>
</svg>
